<?xml version="1.0" encoding="utf-8"?>
<!-- Generator: Adobe Illustrator 19.2.1, SVG Export Plug-In . SVG Version: 6.00 Build 0)  -->
<svg version="1.1" id="Layer_1" xmlns="http://www.w3.org/2000/svg" xmlns:xlink="http://www.w3.org/1999/xlink" x="0px" y="0px"
	 viewBox="0 0 580.6 137.1" style="enable-background:new 0 0 580.6 137.1;" xml:space="preserve">
<style type="text/css">
	.st0{fill:#378FCD;}
	.st1{fill:#454545;}
	.st2{fill:none;}
</style>
<g>
	<path class="st0" d="M92.2,53.9c0,0-7.2,7.8-7.1,13.9c0.2,8.1,5.4,15.5,6.1,16.7c0,0.1,0.1,0.2,0.1,0.2l20.8,30.6
		c13-12.2,21.1-29.5,21.1-48.6c0-15.3-5.1-29.3-13.8-40.6L92.2,53.9z"/>
	<path class="st0" d="M66.6,0C29.8,0.1,0,29.9,0,66.7c0,16.3,5.8,31.2,15.5,42.8L66.6,0z"/>
	<path class="st0" d="M76,95c0,0-10-14.9-9.4-26.3c0.6-11.5,2.8-18.3,11.9-27.6c7-7.1,21.5-21.5,27.9-27.9
		C100.3,8.6,93.3,5,85.7,2.8L30,122.3c10.5,7,23.1,11,36.7,11c11,0,21.3-2.7,30.4-7.4L76,95z"/>
</g>
<g>
	<path class="st1" d="M272.3,60.8c-3-2.9-6.5-5.2-10.3-6.8c-3.9-1.6-7.9-2.4-12.2-2.4c-4.3,0-8.3,0.8-12.1,2.4
		c-3.8,1.6-7.2,3.9-10.3,6.8c-2.9,3-5.2,6.5-6.8,10.3c-1.6,3.9-2.4,7.9-2.4,12.2c0,4.2,0.8,8.2,2.4,12.1c1.6,3.9,3.9,7.3,6.8,10.3
		c3,2.9,6.4,5.2,10.3,6.8c3.8,1.6,7.9,2.4,12.1,2.4c4.2,0,8.3-0.8,12.2-2.4c3.9-1.6,7.3-3.9,10.3-6.8c2.9-3,5.2-6.5,6.8-10.3
		c1.6-3.9,2.4-7.9,2.4-12.1c0-4.2-0.8-8.3-2.4-12.2C277.5,67.3,275.3,63.8,272.3,60.8z M271.6,92.5c-1.2,2.9-2.9,5.4-5.1,7.5
		c-2.2,2.1-4.7,3.8-7.5,5c-2.9,1.2-5.9,1.9-9.2,1.9c-3.2,0-6.3-0.6-9.2-1.9c-2.9-1.2-5.4-2.9-7.5-5c-2.1-2.1-3.8-4.6-5-7.5
		c-1.2-2.9-1.9-5.9-1.9-9.2c0-3.2,0.6-6.3,1.9-9.2c1.2-2.9,2.9-5.4,5-7.5c2.1-2.1,4.6-3.8,7.5-5c2.9-1.2,5.9-1.9,9.2-1.9
		c3.2,0,6.3,0.6,9.2,1.9c2.9,1.2,5.4,2.9,7.5,5c2.2,2.1,3.9,4.6,5.1,7.5c1.2,2.9,1.9,6,1.9,9.2C273.5,86.6,272.9,89.6,271.6,92.5z"
		/>
	<path class="st1" d="M349.5,60.8c-2.9-2.9-6.3-5.2-10.2-6.8c-3.9-1.6-7.9-2.4-12.2-2.4c-4.3,0-8.3,0.8-12.2,2.4
		c-3.9,1.6-7.3,3.9-10.2,6.8c-3,3-5.3,6.5-6.9,10.3c-1.6,3.9-2.4,7.9-2.4,12.2v53.8h8.1v-32.7c0.2,0.3,0.6,0.7,1.2,1.3
		c2.9,2.9,6.3,5.2,10.2,6.8c3.9,1.6,7.9,2.4,12.2,2.4c4.2,0,8.3-0.8,12.2-2.4c3.9-1.6,7.3-3.9,10.2-6.8c3-3,5.3-6.5,6.9-10.3
		c1.6-3.9,2.4-7.9,2.4-12.1c0-4.2-0.8-8.3-2.4-12.2C354.8,67.3,352.5,63.8,349.5,60.8z M348.8,92.5c-1.2,2.9-2.9,5.4-5,7.5
		c-2.1,2.1-4.6,3.8-7.5,5c-2.9,1.2-5.9,1.9-9.2,1.9c-3.2,0-6.3-0.6-9.2-1.9c-2.9-1.2-5.4-2.9-7.5-5c-2.1-2.1-3.8-4.6-5-7.5
		c-1.2-2.9-1.9-5.9-1.9-9.2c0-3.2,0.6-6.3,1.9-9.2c1.2-2.9,2.9-5.4,5-7.5c2.1-2.1,4.6-3.8,7.5-5c2.9-1.2,5.9-1.9,9.2-1.9
		c3.2,0,6.3,0.6,9.2,1.9c2.9,1.2,5.4,2.9,7.5,5c2.1,2.1,3.8,4.6,5,7.5c1.2,2.9,1.9,6,1.9,9.2C350.7,86.6,350.1,89.6,348.8,92.5z"/>
	<path class="st1" d="M426.7,60.8c-2.9-2.9-6.3-5.2-10.2-6.8c-3.9-1.6-7.9-2.4-12.2-2.4c-4.3,0-8.3,0.8-12.2,2.4
		c-3.9,1.6-7.3,3.9-10.2,6.8c-3,3-5.3,6.5-6.9,10.3c-1.6,3.9-2.4,7.9-2.4,12.2c0,4.2,0.8,8.2,2.4,12.1c1.6,3.9,3.9,7.3,6.9,10.3
		c2.9,2.9,6.3,5.2,10.2,6.8c3.9,1.6,7.9,2.4,12.2,2.4c2,0,4.1-0.2,6.3-0.6c2.2-0.4,4.3-1,6.3-1.9c2-0.9,4-2,5.9-3.5
		c1.9-1.4,3.6-3.2,5.1-5.4v8.7h8.1v-29c0-4.2-0.8-8.3-2.4-12.2C432.1,67.3,429.8,63.8,426.7,60.8z M426,92.5c-1.2,2.9-2.9,5.4-5,7.5
		c-2.1,2.1-4.6,3.8-7.5,5c-2.9,1.2-5.9,1.9-9.2,1.9c-3.2,0-6.3-0.6-9.2-1.9c-2.9-1.2-5.4-2.9-7.5-5c-2.1-2.1-3.8-4.6-5-7.5
		c-1.2-2.9-1.9-5.9-1.9-9.2c0-3.2,0.6-6.3,1.9-9.2c1.2-2.9,2.9-5.4,5-7.5c2.1-2.1,4.6-3.8,7.5-5c2.9-1.2,5.9-1.9,9.2-1.9
		c3.2,0,6.3,0.6,9.2,1.9c2.9,1.2,5.4,2.9,7.5,5c2.1,2.1,3.8,4.6,5,7.5c1.2,2.9,1.9,6,1.9,9.2C427.9,86.6,427.3,89.6,426,92.5z"/>
	<path class="st1" d="M497.8,58.9c-2.5-2.5-5.3-4.3-8.5-5.6c-3.2-1.3-6.5-1.9-10-1.9c-3.4,0-6.6,0.7-9.6,2.1c-3,1.4-5.8,3.4-8.2,6.1
		l-0.1-5.2h-8v58h8.1v-35c0-2.5,0.5-4.8,1.4-7c0.9-2.2,2.2-4.1,3.8-5.7c1.6-1.6,3.5-2.9,5.7-3.8c2.2-0.9,4.5-1.4,7-1.4
		c2.5,0,4.8,0.5,7,1.4c2.2,0.9,4.1,2.2,5.7,3.8c1.6,1.6,2.9,3.5,3.9,5.7c1,2.2,1.4,4.5,1.4,7v35h8.1v-35c0-3.5-0.7-6.8-2-10
		C502.2,64.2,500.3,61.3,497.8,58.9z"/>
	<path class="st1" d="M577.8,71.1c-1.6-3.9-3.9-7.3-6.8-10.3c-3-2.9-6.5-5.2-10.3-6.8c-3.9-1.6-7.9-2.4-12.2-2.4
		c-4.3,0-8.3,0.8-12.1,2.4c-3.8,1.6-7.2,3.9-10.3,6.8c-2.9,3-5.2,6.5-6.8,10.3c-1.6,3.9-2.4,7.9-2.4,12.2c0,4.2,0.8,8.2,2.4,12.1
		c1.6,3.9,3.9,7.3,6.8,10.3c3,2.9,6.4,5.2,10.3,6.8c3.8,1.6,7.9,2.4,12.1,2.4c4.2,0,8.3-0.8,12.2-2.4c3.9-1.6,7.3-3.9,10.3-6.8
		c2.9-3,5.2-6.5,6.8-10.3c1.6-3.9,2.4-7.9,2.4-12.1C580.2,79.1,579.4,75,577.8,71.1z M570.3,92.5c-1.2,2.9-2.9,5.4-5.1,7.5
		c-2.2,2.1-4.7,3.8-7.5,5c-2.9,1.2-5.9,1.9-9.2,1.9c-3.2,0-6.3-0.6-9.2-1.9c-2.9-1.2-5.4-2.9-7.5-5c-2.1-2.1-3.8-4.6-5-7.5
		c-1.2-2.9-1.9-5.9-1.9-9.2c0-3.2,0.6-6.3,1.9-9.2c1.2-2.9,2.9-5.4,5-7.5c2.1-2.1,4.6-3.8,7.5-5c2.9-1.2,5.9-1.9,9.2-1.9
		c3.2,0,6.3,0.6,9.2,1.9c2.9,1.2,5.4,2.9,7.5,5c2.2,2.1,3.9,4.6,5.1,7.5c1.2,2.9,1.9,6,1.9,9.2C572.1,86.6,571.5,89.6,570.3,92.5z"
		/>
	<path class="st1" d="M175.4,65.4l38.8-34.1l-12.3,0l-35.4,31.1h0c-0.4,0.3-0.7,0.7-1,1.1V31.2h-8.1v81.2h8.1V72.5
		c0.2,0.3,0.5,0.6,0.8,0.9l41.1,39.1l11.8,0l-43.9-41.7C173.8,69.2,173.8,66.8,175.4,65.4z"/>
</g>
<rect id="_x3C_Slice_x3E_" class="st2" width="580.6" height="137.1"/>
</svg>
