<?xml version="1.0" encoding="UTF-8" standalone="no"?>
<svg
   xmlns:dc="http://purl.org/dc/elements/1.1/"
   xmlns:cc="http://creativecommons.org/ns#"
   xmlns:rdf="http://www.w3.org/1999/02/22-rdf-syntax-ns#"
   xmlns:svg="http://www.w3.org/2000/svg"
   xmlns="http://www.w3.org/2000/svg"
   id="svg3387"
   xml:space="preserve"
   style="enable-background:new 0 0 296.2 298.3;"
   viewBox="0 0 296.2 298.3"
   y="0px"
   x="0px"
   version="1.1"><metadata
     id="metadata3411"><rdf:RDF><cc:Work
         rdf:about=""><dc:format>image/svg+xml</dc:format><dc:type
           rdf:resource="http://purl.org/dc/dcmitype/StillImage" /><dc:title></dc:title></cc:Work></rdf:RDF></metadata><defs
     id="defs3409" /><style
     id="style3389"
     type="text/css">
	.st0{fill:none;}
	.st1{fill:#414042;}
	.st2{fill:#00B3F0;}
</style><g
     id="Layer_1"><rect
       id="rect3392"
       height="297.3"
       width="297.3"
       class="st0"
       y="0.7"
       x="-0.6" /><g
       id="g3394"><g
         id="g3396"><g
           id="g3398"><path
             id="path3400"
             d="M142.9,297.9L18.7,173.7c-6.5-6.5-10.1-15.2-10.1-24.4c0-9.2,3.6-17.9,10.1-24.4L142.9,0.7l26.7,26.7      L54.7,142.3c-1.9,1.9-2.9,4.4-2.9,7c0,2.6,1,5.1,2.9,7l114.9,114.9L142.9,297.9z"
             class="st1" /></g></g><path
         id="path3402"
         d="M287.5,149.3c0-2.6-1-5.1-2.9-7l-3.6-3.6c0,0,0,0,0,0l-71.5-71.5l-2.4,2.4c-10.3,10.6-18.4,22.8-24.1,36.4    c-5.7,13.7-8.7,28.2-8.7,43.2c0,14.8,2.9,29.2,8.7,42.9c5.7,13.6,13.9,25.9,24.3,36.6l2.4,2.4l71.3-71.3l0,0l3.6-3.6    C286.4,154.4,287.5,152,287.5,149.3z"
         class="st2" /></g><rect
       id="rect3404"
       height="297.3"
       width="297.3"
       class="st0"
       y="0.7"
       x="-0.6" /></g><g
     id="Layer_2" /></svg>